<svg width="1869" height="626" viewBox="0 0 1869 626" fill="none" xmlns="http://www.w3.org/2000/svg">
<g clip-path="url(#clip0_17_17)">
<path d="M504 137H124C121.791 137 120 138.791 120 141V501C120 503.209 121.791 505 124 505H504C506.209 505 508 503.209 508 501V141C508 138.791 506.209 137 504 137Z" fill="#EF5350"/>
<path d="M314 183L217 344H301.875L289.75 459L411 298H326.125L338.25 183H314Z" stroke="white" stroke-width="16" stroke-linecap="round" stroke-linejoin="round"/>
</g>
<path d="M644.017 403V221.182H666.034V383.469H750.551V403H644.017ZM781.801 403V266.636H802.753V403H781.801ZM792.455 243.909C788.371 243.909 784.849 242.518 781.89 239.737C778.99 236.955 777.54 233.611 777.54 229.705C777.54 225.798 778.99 222.454 781.89 219.673C784.849 216.891 788.371 215.5 792.455 215.5C796.538 215.5 800.03 216.891 802.93 219.673C805.89 222.454 807.369 225.798 807.369 229.705C807.369 233.611 805.89 236.955 802.93 239.737C800.03 242.518 796.538 243.909 792.455 243.909ZM896.17 456.977C886.049 456.977 877.349 455.675 870.069 453.071C862.789 450.526 856.723 447.152 851.869 442.95C847.075 438.807 843.258 434.368 840.417 429.634L857.107 417.915C859.001 420.401 861.398 423.241 864.298 426.438C867.199 429.693 871.164 432.504 876.195 434.871C881.285 437.298 887.943 438.511 896.17 438.511C907.178 438.511 916.263 435.848 923.425 430.521C930.586 425.195 934.167 416.849 934.167 405.486V377.787H932.392C930.853 380.273 928.663 383.35 925.822 387.02C923.04 390.63 919.016 393.856 913.748 396.697C908.54 399.478 901.497 400.869 892.619 400.869C881.61 400.869 871.726 398.265 862.967 393.057C854.267 387.848 847.371 380.273 842.281 370.33C837.251 360.386 834.735 348.312 834.735 334.108C834.735 320.14 837.191 307.978 842.104 297.62C847.016 287.203 853.852 279.154 862.612 273.472C871.371 267.731 881.492 264.861 892.974 264.861C901.852 264.861 908.895 266.34 914.103 269.3C919.371 272.2 923.395 275.514 926.177 279.243C929.018 282.912 931.208 285.931 932.747 288.298H934.877V266.636H955.119V406.906C955.119 418.625 952.455 428.154 947.129 435.493C941.861 442.891 934.759 448.307 925.822 451.739C916.944 455.231 907.06 456.977 896.17 456.977ZM895.46 382.048C903.864 382.048 910.966 380.125 916.767 376.278C922.567 372.431 926.976 366.897 929.994 359.676C933.013 352.455 934.522 343.814 934.522 333.753C934.522 323.928 933.043 315.257 930.083 307.741C927.124 300.224 922.744 294.335 916.944 290.074C911.144 285.812 903.982 283.682 895.46 283.682C886.582 283.682 879.184 285.931 873.265 290.429C867.406 294.927 862.996 300.964 860.037 308.54C857.137 316.116 855.687 324.52 855.687 333.753C855.687 343.223 857.167 351.597 860.126 358.877C863.144 366.098 867.583 371.78 873.443 375.923C879.361 380.006 886.7 382.048 895.46 382.048ZM1014.42 320.969V403H993.471V221.182H1014.42V287.943H1016.2C1019.39 280.9 1024.19 275.307 1030.58 271.164C1037.03 266.962 1045.61 264.861 1056.33 264.861C1065.62 264.861 1073.76 266.725 1080.74 270.454C1087.72 274.123 1093.14 279.776 1096.99 287.411C1100.89 294.986 1102.85 304.634 1102.85 316.352V403H1081.89V317.773C1081.89 306.942 1079.08 298.567 1073.46 292.648C1067.9 286.671 1060.17 283.682 1050.29 283.682C1043.42 283.682 1037.27 285.132 1031.82 288.032C1026.44 290.932 1022.18 295.164 1019.04 300.727C1015.96 306.291 1014.42 313.038 1014.42 320.969ZM1200.48 266.636V284.392H1129.81V266.636H1200.48ZM1150.41 233.966H1171.36V363.938C1171.36 369.856 1172.22 374.295 1173.94 377.254C1175.71 380.154 1177.96 382.107 1180.68 383.114C1183.46 384.061 1186.39 384.534 1189.47 384.534C1191.78 384.534 1193.67 384.416 1195.15 384.179C1196.63 383.883 1197.82 383.646 1198.7 383.469L1202.97 402.29C1201.55 402.822 1199.56 403.355 1197.02 403.888C1194.47 404.48 1191.25 404.776 1187.34 404.776C1181.42 404.776 1175.62 403.503 1169.94 400.958C1164.32 398.413 1159.64 394.536 1155.91 389.328C1152.24 384.12 1150.41 377.55 1150.41 369.619V233.966ZM1232 454.136V266.636H1252.24V288.298H1254.72C1256.26 285.931 1258.39 282.912 1261.12 279.243C1263.9 275.514 1267.86 272.2 1273.01 269.3C1278.22 266.34 1285.26 264.861 1294.14 264.861C1305.62 264.861 1315.74 267.731 1324.5 273.472C1333.26 279.213 1340.1 287.351 1345.01 297.886C1349.92 308.421 1352.38 320.85 1352.38 335.173C1352.38 349.615 1349.92 362.132 1345.01 372.727C1340.1 383.262 1333.29 391.429 1324.59 397.229C1315.89 402.97 1305.86 405.841 1294.5 405.841C1285.74 405.841 1278.72 404.391 1273.46 401.491C1268.19 398.531 1264.13 395.187 1261.29 391.459C1258.45 387.671 1256.26 384.534 1254.72 382.048H1252.95V454.136H1232ZM1252.59 334.818C1252.59 345.116 1254.1 354.201 1257.12 362.073C1260.14 369.886 1264.55 376.011 1270.35 380.45C1276.15 384.83 1283.25 387.02 1291.66 387.02C1300.42 387.02 1307.72 384.712 1313.58 380.095C1319.5 375.42 1323.94 369.146 1326.9 361.274C1329.92 353.343 1331.43 344.525 1331.43 334.818C1331.43 325.23 1329.95 316.589 1326.99 308.895C1324.09 301.142 1319.68 295.016 1313.76 290.518C1307.9 285.96 1300.53 283.682 1291.66 283.682C1283.13 283.682 1275.97 285.842 1270.17 290.163C1264.37 294.424 1259.99 300.402 1257.03 308.096C1254.07 315.731 1252.59 324.638 1252.59 334.818ZM1424.47 406.196C1415.83 406.196 1407.98 404.568 1400.94 401.313C1393.9 397.999 1388.31 393.234 1384.16 387.02C1380.02 380.746 1377.95 373.17 1377.95 364.293C1377.95 356.48 1379.49 350.147 1382.56 345.294C1385.64 340.382 1389.76 336.535 1394.9 333.753C1400.05 330.971 1405.74 328.9 1411.95 327.538C1418.22 326.118 1424.53 324.993 1430.86 324.165C1439.15 323.099 1445.86 322.3 1451.01 321.768C1456.22 321.176 1460.01 320.199 1462.38 318.838C1464.8 317.477 1466.02 315.109 1466.02 311.736V311.026C1466.02 302.266 1463.62 295.46 1458.83 290.607C1454.09 285.753 1446.9 283.327 1437.25 283.327C1427.25 283.327 1419.41 285.517 1413.73 289.896C1408.04 294.276 1404.05 298.952 1401.74 303.923L1381.85 296.821C1385.41 288.535 1390.14 282.084 1396.06 277.467C1402.04 272.792 1408.55 269.536 1415.59 267.702C1422.69 265.808 1429.68 264.861 1436.54 264.861C1440.92 264.861 1445.95 265.393 1451.63 266.459C1457.38 267.465 1462.91 269.566 1468.24 272.762C1473.62 275.958 1478.09 280.782 1481.64 287.233C1485.19 293.684 1486.97 302.325 1486.97 313.156V403H1466.02V384.534H1464.95C1463.53 387.493 1461.16 390.66 1457.85 394.033C1454.53 397.407 1450.13 400.277 1444.62 402.645C1439.12 405.012 1432.4 406.196 1424.47 406.196ZM1427.66 387.375C1435.95 387.375 1442.93 385.747 1448.62 382.492C1454.36 379.237 1458.68 375.035 1461.58 369.886C1464.54 364.737 1466.02 359.321 1466.02 353.639V334.463C1465.13 335.528 1463.18 336.505 1460.16 337.393C1457.2 338.221 1453.76 338.961 1449.86 339.612C1446.01 340.204 1442.25 340.737 1438.58 341.21C1434.97 341.625 1432.04 341.98 1429.79 342.276C1424.35 342.986 1419.26 344.14 1414.52 345.738C1409.85 347.277 1406.06 349.615 1403.16 352.751C1400.32 355.829 1398.9 360.031 1398.9 365.358C1398.9 372.638 1401.59 378.142 1406.98 381.871C1412.42 385.54 1419.32 387.375 1427.66 387.375ZM1580.61 405.841C1567.82 405.841 1556.81 402.822 1547.58 396.786C1538.35 390.749 1531.25 382.433 1526.27 371.839C1521.3 361.245 1518.82 349.141 1518.82 335.528C1518.82 321.679 1521.36 309.457 1526.45 298.863C1531.6 288.21 1538.76 279.894 1547.94 273.916C1557.17 267.879 1567.94 264.861 1580.25 264.861C1589.84 264.861 1598.48 266.636 1606.18 270.188C1613.87 273.739 1620.17 278.71 1625.09 285.102C1630 291.494 1633.05 298.952 1634.23 307.474H1613.28C1611.68 301.26 1608.13 295.756 1602.62 290.962C1597.18 286.108 1589.84 283.682 1580.61 283.682C1572.44 283.682 1565.28 285.812 1559.12 290.074C1553.03 294.276 1548.26 300.224 1544.83 307.918C1541.46 315.553 1539.77 324.52 1539.77 334.818C1539.77 345.353 1541.43 354.527 1544.74 362.339C1548.11 370.152 1552.85 376.219 1558.95 380.539C1565.1 384.86 1572.32 387.02 1580.61 387.02C1586.05 387.02 1590.99 386.073 1595.43 384.179C1599.87 382.285 1603.63 379.562 1606.71 376.011C1609.79 372.46 1611.98 368.199 1613.28 363.227H1634.23C1633.05 371.277 1630.12 378.527 1625.44 384.978C1620.82 391.37 1614.7 396.46 1607.06 400.248C1599.49 403.977 1590.67 405.841 1580.61 405.841ZM1684.39 353.284L1684.03 327.361H1688.3L1747.95 266.636H1773.88L1710.31 330.912H1708.54L1684.39 353.284ZM1664.86 403V221.182H1685.81V403H1664.86ZM1751.51 403L1698.24 335.528L1713.15 320.969L1778.14 403H1751.51Z" fill="black"/>
<defs>
<clipPath id="clip0_17_17">
<rect x="120" y="137" width="388" height="368" rx="50" fill="white"/>
</clipPath>
</defs>
</svg>
